<svg width="1166" height="213" viewBox="0 0 1166 213" fill="none" xmlns="http://www.w3.org/2000/svg">
<g clip-path="url(#clip0_3_2)">
<path d="M252.895 105.412C259.022 106.506 264.219 109.734 268.486 115.095C272.753 120.456 274.886 126.528 274.886 133.311C274.886 139.11 273.354 144.361 270.291 149.066C267.337 153.661 263.015 157.326 257.326 160.061C251.637 162.687 245.018 164 237.469 164H191.845V49.9424H235.335C243.103 49.9424 249.777 51.2552 255.357 53.881C260.937 56.5068 265.149 60.0626 267.993 64.5483C270.838 68.9246 272.26 73.848 272.26 79.3184C272.26 85.8828 270.51 91.3532 267.009 95.7296C263.508 100.106 258.803 103.333 252.895 105.412ZM210.554 97.863H233.694C239.821 97.863 244.58 96.4954 247.972 93.7602C251.473 90.9156 253.223 86.8675 253.223 81.6159C253.223 76.4738 251.473 72.4804 247.972 69.6358C244.58 66.6818 239.821 65.2047 233.694 65.2047H210.554V97.863ZM235.827 148.738C242.173 148.738 247.151 147.206 250.762 144.143C254.372 141.079 256.177 136.812 256.177 131.342C256.177 125.762 254.263 121.331 250.433 118.049C246.604 114.767 241.517 113.125 235.171 113.125H210.554V148.738H235.827ZM285.698 118.377C285.698 109.296 287.558 101.255 291.278 94.2525C295.107 87.2504 300.249 81.8347 306.705 78.0055C313.269 74.0668 320.49 72.0975 328.367 72.0975C335.479 72.0975 341.66 73.5198 346.912 76.3644C352.273 79.0996 356.54 82.5459 359.713 86.7034V73.5745H378.585V164H359.713V150.543C356.54 154.81 352.218 158.366 346.748 161.21C341.277 164.055 335.041 165.477 328.039 165.477C320.271 165.477 313.16 163.508 306.705 159.569C300.249 155.521 295.107 149.941 291.278 142.83C287.558 135.609 285.698 127.458 285.698 118.377ZM359.713 118.705C359.713 112.469 358.4 107.053 355.774 102.458C353.258 97.863 349.921 94.362 345.763 91.955C341.606 89.548 337.12 88.3445 332.306 88.3445C327.492 88.3445 323.006 89.548 318.849 91.955C314.691 94.2525 311.3 97.6989 308.674 102.294C306.157 106.78 304.899 112.141 304.899 118.377C304.899 124.613 306.157 130.084 308.674 134.788C311.3 139.493 314.691 143.103 318.849 145.62C323.116 148.027 327.601 149.23 332.306 149.23C337.12 149.23 341.606 148.027 345.763 145.62C349.921 143.213 353.258 139.712 355.774 135.116C358.4 130.412 359.713 124.941 359.713 118.705ZM432.699 165.477C425.587 165.477 419.187 164.219 413.498 161.702C407.918 159.077 403.487 155.576 400.205 151.199C396.922 146.714 395.172 141.736 394.953 136.265H414.318C414.647 140.094 416.452 143.322 419.734 145.948C423.126 148.464 427.338 149.722 432.371 149.722C437.622 149.722 441.67 148.738 444.515 146.768C447.469 144.69 448.946 142.064 448.946 138.891C448.946 135.499 447.305 132.983 444.023 131.342C440.85 129.701 435.762 127.895 428.76 125.926C421.977 124.066 416.452 122.261 412.185 120.51C407.918 118.76 404.198 116.079 401.025 112.469C397.962 108.858 396.43 104.099 396.43 98.1912C396.43 93.3773 397.852 89.001 400.697 85.0623C403.542 81.0142 407.59 77.8414 412.841 75.5438C418.202 73.2462 424.329 72.0975 431.222 72.0975C441.506 72.0975 449.766 74.7232 456.003 79.9748C462.348 85.117 465.74 92.1738 466.178 101.145H447.469C447.141 97.0971 445.5 93.8696 442.546 91.4626C439.591 89.0557 435.598 87.8522 430.565 87.8522C425.642 87.8522 421.867 88.7821 419.242 90.6421C416.616 92.502 415.303 94.9637 415.303 98.0271C415.303 100.434 416.178 102.458 417.929 104.099C419.679 105.74 421.813 107.053 424.329 108.038C426.845 108.913 430.565 110.062 435.489 111.484C442.053 113.235 447.414 115.04 451.572 116.9C455.839 118.65 459.504 121.276 462.567 124.777C465.631 128.278 467.217 132.928 467.326 138.727C467.326 143.869 465.904 148.464 463.059 152.512C460.215 156.56 456.167 159.733 450.915 162.031C445.773 164.328 439.701 165.477 432.699 165.477ZM567.136 116.572C567.136 119.963 566.917 123.027 566.479 125.762H497.388C497.935 132.983 500.616 138.782 505.43 143.158C510.244 147.534 516.152 149.722 523.154 149.722C533.219 149.722 540.331 145.51 544.488 137.086H564.674C561.939 145.401 556.961 152.239 549.74 157.6C542.629 162.851 533.766 165.477 523.154 165.477C514.511 165.477 506.743 163.562 499.85 159.733C493.067 155.794 487.706 150.324 483.767 143.322C479.938 136.21 478.023 128.005 478.023 118.705C478.023 109.406 479.883 101.255 483.603 94.2525C487.432 87.141 492.739 81.6706 499.522 77.8414C506.414 74.0121 514.292 72.0975 523.154 72.0975C531.688 72.0975 539.292 73.9574 545.965 77.6772C552.639 81.3971 557.836 86.6487 561.556 93.432C565.276 100.106 567.136 107.819 567.136 116.572ZM547.607 110.664C547.497 103.771 545.035 98.2459 540.222 94.0884C535.408 89.9309 529.445 87.8522 522.333 87.8522C515.878 87.8522 510.353 89.9309 505.758 94.0884C501.163 98.1365 498.428 103.662 497.552 110.664H547.607ZM691.727 72.0975C698.839 72.0975 705.185 73.5745 710.764 76.5285C716.454 79.4825 720.885 83.8588 724.058 89.6574C727.34 95.456 728.981 102.458 728.981 110.664V164H710.436V113.454C710.436 105.357 708.412 99.1759 704.364 94.909C700.316 90.5327 694.791 88.3445 687.789 88.3445C680.787 88.3445 675.207 90.5327 671.049 94.909C667.001 99.1759 664.977 105.357 664.977 113.454V164H646.433V113.454C646.433 105.357 644.409 99.1759 640.36 94.909C636.312 90.5327 630.787 88.3445 623.785 88.3445C616.783 88.3445 611.203 90.5327 607.046 94.909C602.998 99.1759 600.974 105.357 600.974 113.454V164H582.265V73.5745H600.974V83.9135C604.037 80.1936 607.921 77.2943 612.626 75.2156C617.33 73.1368 622.363 72.0975 627.724 72.0975C634.945 72.0975 641.4 73.6292 647.089 76.6926C652.778 79.756 657.155 84.187 660.218 89.9856C662.953 84.5152 667.22 80.1936 673.019 77.0208C678.817 73.7386 685.054 72.0975 691.727 72.0975ZM743.269 118.377C743.269 109.296 745.129 101.255 748.849 94.2525C752.678 87.2504 757.82 81.8347 764.275 78.0055C770.84 74.0668 778.061 72.0975 785.938 72.0975C793.049 72.0975 799.231 73.5198 804.483 76.3644C809.844 79.0996 814.11 82.5459 817.283 86.7034V73.5745H836.156V164H817.283V150.543C814.11 154.81 809.789 158.366 804.318 161.21C798.848 164.055 792.612 165.477 785.61 165.477C777.842 165.477 770.73 163.508 764.275 159.569C757.82 155.521 752.678 149.941 748.849 142.83C745.129 135.609 743.269 127.458 743.269 118.377ZM817.283 118.705C817.283 112.469 815.97 107.053 813.345 102.458C810.828 97.863 807.491 94.362 803.334 91.955C799.176 89.548 794.691 88.3445 789.877 88.3445C785.063 88.3445 780.577 89.548 776.419 91.955C772.262 94.2525 768.87 97.6989 766.245 102.294C763.728 106.78 762.47 112.141 762.47 118.377C762.47 124.613 763.728 130.084 766.245 134.788C768.87 139.493 772.262 143.103 776.419 145.62C780.686 148.027 785.172 149.23 789.877 149.23C794.691 149.23 799.176 148.027 803.334 145.62C807.491 143.213 810.828 139.712 813.345 135.116C815.97 130.412 817.283 124.941 817.283 118.705ZM876.156 86.7034C878.891 82.1083 882.501 78.5525 886.987 76.0361C891.582 73.4103 896.998 72.0975 903.234 72.0975V91.4626H898.475C891.145 91.4626 885.565 93.3226 881.736 97.0424C878.016 100.762 876.156 107.217 876.156 116.408V164H857.447V73.5745H876.156V86.7034ZM952.926 118.869L994.61 164H969.337L935.858 125.106V164H917.149V42.5573H935.858V113.125L968.68 73.5745H994.61L952.926 118.869ZM1087.61 116.572C1087.61 119.963 1087.4 123.027 1086.96 125.762H1017.87C1018.41 132.983 1021.09 138.782 1025.91 143.158C1030.72 147.534 1036.63 149.722 1043.63 149.722C1053.7 149.722 1060.81 145.51 1064.97 137.086H1085.15C1082.42 145.401 1077.44 152.239 1070.22 157.6C1063.11 162.851 1054.24 165.477 1043.63 165.477C1034.99 165.477 1027.22 163.562 1020.33 159.733C1013.54 155.794 1008.18 150.324 1004.25 143.322C1000.42 136.21 998.501 128.005 998.501 118.705C998.501 109.406 1000.36 101.255 1004.08 94.2525C1007.91 87.141 1013.22 81.6706 1020 77.8414C1026.89 74.0121 1034.77 72.0975 1043.63 72.0975C1052.17 72.0975 1059.77 73.9574 1066.44 77.6772C1073.12 81.3971 1078.31 86.6487 1082.03 93.432C1085.75 100.106 1087.61 107.819 1087.61 116.572ZM1068.08 110.664C1067.98 103.771 1065.51 98.2459 1060.7 94.0884C1055.89 89.9309 1049.92 87.8522 1042.81 87.8522C1036.36 87.8522 1030.83 89.9309 1026.24 94.0884C1021.64 98.1365 1018.91 103.662 1018.03 110.664H1068.08ZM1124.57 88.8369V138.891C1124.57 142.283 1125.34 144.744 1126.87 146.276C1128.51 147.698 1131.24 148.409 1135.07 148.409H1146.56V164H1131.79C1123.37 164 1116.91 162.031 1112.43 158.092C1107.94 154.153 1105.7 147.753 1105.7 138.891V88.8369H1095.03V73.5745H1105.7V51.0911H1124.57V73.5745H1146.56V88.8369H1124.57Z" fill="white"/>
<path d="M105.291 7.96058L134.991 34.3987L106.285 136.679L139.307 166.074L41.0398 206.434L11.3397 179.995L40.0457 77.715L7.02376 48.3199L105.291 7.96058ZM38.0518 177.331L40.5917 179.592L106.104 136.517L73.2486 107.271L38.0518 177.331ZM73.0815 107.122L108.278 37.0625L105.738 34.8016L40.2266 77.876L73.0815 107.122Z" fill="#144EE1"/>
</g>
<defs>
<clipPath id="clip0_3_2">
<rect width="1166" height="213" fill="white"/>
</clipPath>
</defs>
</svg>
